<?xml version="1.0" encoding="UTF-8" standalone="no"?>
<svg
   xmlns:dc="http://purl.org/dc/elements/1.1/"
   xmlns:cc="http://creativecommons.org/ns#"
   xmlns:rdf="http://www.w3.org/1999/02/22-rdf-syntax-ns#"
   xmlns:svg="http://www.w3.org/2000/svg"
   xmlns="http://www.w3.org/2000/svg"
   xmlns:sodipodi="http://sodipodi.sourceforge.net/DTD/sodipodi-0.dtd"
   xmlns:inkscape="http://www.inkscape.org/namespaces/inkscape"
   viewBox="0 0 100.00511 45.25964"
   version="1.1"
   id="svg16"
   sodipodi:docname="logo.svg"
   width="100.00511"
   height="45.25964"
   inkscape:version="0.92.3 (2405546, 2018-03-11)">
  <metadata
     id="metadata20">
    <rdf:RDF>
      <cc:Work
         rdf:about="">
        <dc:format>image/svg+xml</dc:format>
        <dc:type
           rdf:resource="http://purl.org/dc/dcmitype/StillImage" />
        <dc:title>5e D&amp;amp;D logo</dc:title>
      </cc:Work>
    </rdf:RDF>
  </metadata>
  <sodipodi:namedview
     pagecolor="#ffffff"
     bordercolor="#666666"
     borderopacity="1"
     objecttolerance="10"
     gridtolerance="10"
     guidetolerance="10"
     inkscape:pageopacity="0"
     inkscape:pageshadow="2"
     inkscape:window-width="640"
     inkscape:window-height="480"
     id="namedview18"
     showgrid="false"
     fit-margin-top="0"
     fit-margin-left="0"
     fit-margin-right="0"
     fit-margin-bottom="0"
     inkscape:zoom="2.36"
     inkscape:cx="50"
     inkscape:cy="21.61937"
     inkscape:window-x="41"
     inkscape:window-y="27"
     inkscape:window-maximized="0"
     inkscape:current-layer="svg16" />
  <defs
     id="defs4">
    <style
       id="style2">.cls-1{fill:#00040c;}</style>
  </defs>
  <title
     id="title6">5e D&amp;amp;D logo</title>
  <g
     id="D_D_Logos"
     data-name="D&amp;D Logos"
     transform="translate(0,-26.359731)">
    <g
       id="D_D"
       data-name="D&amp;D">
      <path
         class="cls-1"
         d="m 100,62.79 a 3.45,3.45 0 1 1 -3.45,-3.48 3.3,3.3 0 0 1 3.45,3.48 m -3.45,2.77 a 2.77,2.77 0 1 0 -2.62,-2.77 2.55,2.55 0 0 0 2.62,2.77 m 0.84,-2.28 c 1.29,-0.29 1,-2.26 -0.54,-2.26 h -1.69 v 3.54 h 0.93 v -1.1 h 0.33 l 0.84,1.1 h 1 v -0.2 z m -0.54,-1.42 a 0.41,0.41 0 1 1 0,0.81 h -0.76 v -0.81 z"
         id="path8"
         inkscape:connector-curvature="0"
         style="fill:#00040c" />
      <path
         class="cls-1"
         d="M 19.76,57.92 H 15.9 V 40.24 h 3.86 c 5.07,0 8,3.23 8,8.87 0,5.64 -2.9,8.81 -8,8.81 M 74,42.09 v -1 a 12,12 0 0 0 -1.87,0.73 8.94,8.94 0 0 1 1.87,0.22 m -42.23,15.53 -1.07,1.5 0.38,-4.24 A 11.52,11.52 0 0 1 35,47.54 c -0.3,0 -0.62,0.08 -1,0.15 l -3.8,0.79 2.8,-2.75 a 14.87,14.87 0 0 1 3.4,-2.25 l 0.41,-0.22 A 16.22,16.22 0 0 0 28.86,34 18.68,18.68 0 0 0 20.41,31.93 v 0 H 13.5 c -5.47,0 -8.06,-0.07 -10,-0.51 A 11.21,11.21 0 0 1 0.42,30 L 0,29.76 v 0.5 c 0,0.16 0.39,3.86 4.82,7.1 0.86,0.61 1.46,1.22 1.46,3.4 V 60.6 c 0,2.12 -0.42,2.71 -1.41,3.31 -0.99,0.6 -3.26,1.93 -3.26,1.93 l -0.77,0.45 h 18 c 5,0 8.18,-0.85 11.59,-3.13 a 15.57,15.57 0 0 0 1.35,-1 15.44,15.44 0 0 1 0,-4.55 m 34.42,0.48 a 1.21,1.21 0 0 0 0.12,-1.1 L 65.2,53.9 68,55.56 a 4.5,4.5 0 0 1 0.74,0.56 L 70.42,56 a 8,8 0 0 1 3.6,0.49 v -8.7 a 4.47,4.47 0 0 0 -1.33,0.66 l -0.71,0.64 -0.77,-0.58 a 3.41,3.41 0 0 0 -2,-0.59 4.57,4.57 0 0 0 -3.38,1.49 c -0.5,0.58 -1,1.18 -1.37,1.77 v 6.89 c 0.68,0.52 1.39,0.51 1.76,0 M 87,34 a 18.68,18.68 0 0 0 -8.45,-2.07 v 0 h -6.94 c -5.47,0 -8.06,-0.07 -10,-0.51 A 11.21,11.21 0 0 1 58.53,30 l -0.42,-0.28 v 0.5 c 0,0.16 0.39,3.86 4.82,7.1 0.86,0.61 1.46,1.22 1.46,3.4 v 1.43 a 18.82,18.82 0 0 1 3.15,-1.54 9.41,9.41 0 0 0 -1.27,1.4 8.29,8.29 0 0 1 3.31,-1.22 12.52,12.52 0 0 1 4.4,0 v -0.54 h 3.86 c 5.06,0 8,3.23 8,8.87 0,5.64 -2.91,8.81 -8,8.81 h -1.47 a 6.45,6.45 0 0 1 2.17,4.75 6.23,6.23 0 0 1 -1.18,3.61 c 4.81,0 7.88,-0.9 11.2,-3.12 A 16.17,16.17 0 0 0 92.25,59.8 17.45,17.45 0 0 0 95.84,49 16.61,16.61 0 0 0 87,34"
         id="path10"
         inkscape:connector-curvature="0"
         style="fill:#00040c" />
      <path
         class="cls-1"
         d="m 37.55,36.05 a 8.24,8.24 0 0 1 2.32,-6.84 9.62,9.62 0 0 1 7.91,-2.79 c 5.74,0.31 8.49,4.24 8.49,8.48 a 12.49,12.49 0 0 1 -2.49,6.72 l -0.25,-0.26 c -0.28,-0.28 -0.61,-0.57 -1,-0.88 a 16.89,16.89 0 0 1 -2.72,-2.89 c 1.57,-2.86 0.67,-6.91 -2.65,-6.91 A 3.67,3.67 0 0 0 43.74,34.83 9.19,9.19 0 0 0 43.13,39 5,5 0 0 1 41,36.84 l -1.22,-2.92 -1,3 a 5.23,5.23 0 0 0 -0.17,2.3 v 0 a 6.93,6.93 0 0 1 -1.08,-3.18 m -3.75,10.52 c 1.64,-1.64 5,-2.66 5.21,-3.55 0.21,-0.89 -1.51,-2.37 -2.16,-2.65 a 10.18,10.18 0 0 1 3.57,0.35 4.22,4.22 0 0 1 -0.47,-3.43 c 1.3,3.12 5.94,3.62 7.09,6.2 a 5.06,5.06 0 0 0 -2.44,-3.09 c -0.66,-1.7 -0.17,-4.82 0.64,-5.69 -0.29,4.5 6.13,7.07 7.46,10.33 -0.79,-2.8 -3.77,-4.57 -5.19,-6.24 a 4.53,4.53 0 0 1 0.4,-3.64 c -0.15,3 3.1,5.36 4.83,7 2.05,2 2.63,3.73 2.35,5.16 a 1.22,1.22 0 0 1 1,1.3 2.53,2.53 0 0 0 1.48,-1.36 5.42,5.42 0 0 1 -2.46,5.3 2.09,2.09 0 0 0 -0.28,-1.89 c -0.66,-0.8 -2.54,-0.81 -3.17,-0.76 0,0 0.77,-1.16 0.47,-1.74 -0.39,-0.73 -4.06,-0.41 -5.71,0.19 a 7.22,7.22 0 0 1 2.35,0.28 c -0.26,0.38 -0.93,2 -0.45,2.49 0.48,0.49 1,-0.33 1,-0.33 0,0 -0.57,1.77 -0.16,2.18 0.41,0.41 1.29,0.12 1.29,0.12 -0.55,1.39 -2.68,2.34 -4.18,2.34 A 3.13,3.13 0 0 0 47.8,53.74 4.16,4.16 0 0 1 46,54 2.8,2.8 0 0 0 47.15,51.16 c -0.45,-2 -3.29,-2.3 -4.72,-1.31 A 5.62,5.62 0 0 1 45.36,46.77 14.29,14.29 0 0 0 43.19,46.22 8.17,8.17 0 0 1 47.54,45 c -1.78,-0.46 -5,0.11 -6.52,1.87 a 11,11 0 0 1 2.17,0.38 13.36,13.36 0 0 0 -5.64,3.17 c 0.21,-1.18 0.54,-2.18 0.27,-2.89 -0.4,-1 -1.62,-1.42 -4,-0.92 m 18.49,0.22 a 3.67,3.67 0 0 0 -2.14,-2.18 c 0.33,1.14 0.76,2.18 2.14,2.18 m 25.07,15.84 c 0,-3.3 -3.2,-5.86 -6.85,-5.52 A 3.12,3.12 0 0 1 73,60 c 0,2.58 -3.22,3.38 -5,3 1.89,-1.31 1.64,-5.08 -0.63,-6.42 0.77,2.11 -1.54,4.21 -3.78,2.37 -1.25,-1 -4.13,-3.43 -5.42,-4.47 -1.29,-1.04 -2.8,-0.43 -3.39,-0.88 -0.59,-0.45 -0.24,-2 -1.17,-2.5 -0.77,-0.45 -1.54,-0.2 -2.44,-0.5 a 1.68,1.68 0 0 1 -1.32,-1.76 2.21,2.21 0 0 0 0.25,2.4 c 0.62,0.71 1.64,1.15 2.07,1.93 0.55,1 -0.38,2.42 2.06,4.34 1.17,0.91 3,2.41 4.16,3.45 2,1.75 0.93,3.92 1.19,5.82 a 4.61,4.61 0 0 0 3.28,3.76 3.44,3.44 0 0 1 0,-4.71 6.23,6.23 0 0 0 4.47,5.57 c 3.24,0.86 6.69,-1 7.41,-2.27 a 5.12,5.12 0 0 1 -4.58,-1 c 3.8,0.54 7.17,-2.11 7.17,-5.49 M 57.61,61.78 c -1,-0.89 -2.53,-2.15 -3.67,-3.06 -1.3,2.22 -4.07,5.12 -6.87,5.12 -5.16,0 -7.75,-7.3 -2,-13.28 a 2.68,2.68 0 0 0 -0.78,-0.12 2.37,2.37 0 0 0 -1.3,0.35 l -2.19,1.6 0.52,-2.89 A 3.66,3.66 0 0 1 41.5,49 12.15,12.15 0 0 0 38.41,51.12 l -2.24,2.45 0.24,-3.45 0.15,-0.77 a 4.58,4.58 0 0 0 0.18,-1.49 0.42,0.42 0 0 0 -0.17,-0.18 c -1.06,0.82 -4,3.41 -4.33,7.22 a 3.33,3.33 0 0 1 1,-1 c 0.33,-0.12 0.61,0 0.3,1 -0.12,0.37 -2.94,8 2.61,13.29 0,0 -0.61,-1.55 -0.24,-2 0.18,-0.23 0.41,-0.25 0.73,0.16 0.32,0.41 0.49,0.62 0.76,0.92 v 0 a 12,12 0 0 0 1.6,1.46 11.43,11.43 0 0 0 6.48,2.1 c 6.87,0 10.5,-4.74 12.52,-8.71 -0.09,-0.1 -0.19,-0.21 -0.3,-0.31 M 69.48,45.25 c -5.11,0.25 -9.52,4.6 -11.77,7.67 a 3.89,3.89 0 0 1 1.22,0.64 l 1.92,1.57 a 27.31,27.31 0 0 1 4.08,-6.48 5.43,5.43 0 0 1 7,-1.06 c 1.13,-1 5,-2 7,-1.39 A 10,10 0 0 0 72.15,43 c -2.41,0 -3.77,1.18 -4.12,0.65 -0.35,-0.53 1.63,-1.65 1.63,-1.65 -2.84,0.12 -4.91,3.47 -5.77,3 -0.51,-0.25 0.77,-1.86 0.77,-1.86 a 12.46,12.46 0 0 0 -5.23,6.66 c 2.39,-2.93 7,-5 10.05,-4.59 m 0.86,13 A 2,2 0 0 1 71.87,60 1.56,1.56 0 0 1 71.06,61.37 3.3,3.3 0 0 1 70.23,61.73 5.59,5.59 0 0 0 70.45,60 c 0,-1.09 -0.11,-1.69 -0.11,-1.69"
         id="path12"
         inkscape:connector-curvature="0"
         style="fill:#00040c" />
    </g>
  </g>
</svg>
